<?xml version="1.0" standalone="no"?>
<!DOCTYPE svg PUBLIC "-//W3C//DTD SVG 1.1//EN" "http://www.w3.org/Graphics/SVG/1.1/DTD/svg11.dtd">
<svg xmlns="http://www.w3.org/2000/svg" version="1.0" width="12913" height="3144" viewBox="0 0 12913 3144"><path style="fill:#377dff" d="M14160 25284c-223-31-418-86-621-174-147-64-402-228-544-350-410-353-672-845-746-1400-19-136-16-429 5-575 76-527 337-1010 731-1352 220-191 495-349 758-434 104-34 127-45 127-61 0-10 32-368 70-796 39-427 70-778 70-780 0-1-24-13-52-26-29-12-106-52-171-89l-117-65-34 41c-18 23-228 308-467 632-238 325-723 983-1076 1463-354 480-643 879-643 887 0 7 18 50 40 94 124 248 186 585 161 872-20 235-70 426-160 614-91 191-187 329-336 484-244 253-548 420-905 497-159 35-417 43-580 20-387-56-711-213-987-479-267-257-432-566-510-952-14-70-18-138-18-310 0-190 3-235 23-333 118-582 501-1053 1044-1287 198-85 390-125 638-132 168-5 219-1 410 33l36 6 160-219c476-647 2070-2812 2090-2838l23-30-70-90c-247-320-459-711-598-1102l-33-93h-52c-28 0-429 23-891 50-462 28-1297 77-1855 110s-1020 62-1026 64c-7 3-17 22-24 43-19 58-104 225-156 306-230 357-576 618-977 738-295 88-641 94-939 18-479-122-908-466-1132-907-83-164-155-405-177-592-18-155-6-404 25-556 124-591 540-1079 1099-1288 508-190 1062-139 1532 142 221 132 458 369 585 585 44 76 45 76 86 77 38 0 1049-59 2961-174 403-24 737-47 743-51 5-3 10-32 10-63s7-115 15-187c8-71 13-130 12-131s-320-169-710-374l-707-372-76 62c-546 451-1296 612-1981 424-770-211-1365-819-1564-1597-58-228-77-581-44-832 71-538 350-1041 775-1397 430-359 973-541 1525-508 636 37 1182 313 1593 805 263 314 431 704 487 1128 19 151 19 393 0 543-9 65-12 120-8 124s233 126 508 270 536 282 581 306l81 43 82-137c308-517 758-980 1273-1311 172-110 308-185 488-267 82-38 150-75 150-81 0-18-230-1095-236-1105-3-4-20-8-37-8-52 0-264-37-370-65-257-67-548-216-772-396-350-282-610-700-716-1153-67-286-66-633 1-936 88-394 321-796 618-1064 226-204 449-338 727-435 244-86 423-115 700-116 212 0 330 15 524 67 724 192 1288 756 1481 1481 54 203 64 291 64 537 0 169-4 250-17 325-79 448-260 810-567 1128-55 58-136 133-179 167-78 62-78 62-70 98 4 20 62 293 129 607 67 313 122 571 123 572 2 1 79 4 172 7 592 17 1078 121 1575 338 209 92 437 215 609 331l74 49 1100-1100 1100-1100-55-118c-162-347-223-631-223-1029 1-248 14-368 62-565 178-733 686-1347 1369-1653 667-300 1433-283 2088 45 702 352 1204 1045 1315 1818 28 192 33 312 21 496-32 513-189 936-499 1349-96 129-328 360-456 456-471 352-1028 521-1613 488-311-18-615-94-888-224l-112-52-1100 1101-1100 1101 70 105c91 138 195 327 277 505 37 80 70 148 74 151 3 4 304-57 669-135s1048-224 1518-324l854-183 18-121c59-426 211-788 476-1143 97-129 286-324 407-420 630-500 1455-661 2228-436 651 190 1223 691 1513 1326 332 728 279 1612-137 2276-277 442-658 775-1109 967-318 135-635 199-985 198-537-1-1020-165-1463-498-243-183-457-427-638-729-11-19-358 53-2771 570l-283 61-5 215c-3 118-12 277-21 355-68 623-286 1229-629 1756l-63 96 443 443 443 443 59-21c71-26 225-65 353-88 135-25 472-25 630-1 683 106 1257 528 1564 1148 287 579 285 1259-5 1844-301 606-864 1022-1539 1137-162 28-482 30-635 4-372-63-703-206-990-430-98-76-282-264-359-366-264-350-396-703-426-1135-9-134 1-351 21-474 32-192 108-427 193-593l43-86-406-405-406-406-42 30c-146 103-418 252-629 345-542 239-1158 356-1761 336-126-4-153-2-153 9 0 22-109 1240-114 1277l-5 32 124 60c132 64 306 176 419 268 164 134 349 342 470 530 61 94 176 332 216 447 178 510 169 1059-26 1547-200 502-567 909-1036 1149-221 113-412 177-653 220-159 28-491 35-645 13zm512-339c1153-152 1886-1275 1558-2385-123-413-379-760-756-1023-101-70-307-171-441-216l-102-34 5-41c3-31 122-1361 136-1531 2-23-1-30-17-33-156-23-475-102-634-157-41-14-76-23-79-20-2 2-39 394-82 870-43 477-80 867-81 869-2 1-40 8-84 15-251 41-553 173-777 341-858 645-994 1879-297 2705 199 235 497 443 780 543 117 41 317 90 414 101 129 14 335 12 457-4zm-4507-509c303-67 527-188 735-396 273-272 413-612 413-1000 0-284-73-528-228-766-37-57-53-90-47-97 5-7 423-574 929-1262 506-687 1028-1398 1162-1579 133-180 243-332 244-336s-34-34-78-67c-121-90-258-206-378-322-61-60-111-100-116-95-4 5-57 77-118 159-194 265-2235 3040-2242 3048-4 4-41-4-82-19-204-70-471-92-684-56-624 107-1098 598-1176 1218-16 127-6 361 20 474 94 412 363 770 717 952 162 84 284 125 459 154 104 17 374 12 470-10zm10710-1857c44-6 131-23 194-39 499-130 924-481 1143-947 52-112 123-329 143-438 23-125 31-379 16-501-83-673-533-1234-1168-1454-426-148-903-126-1299 59l-82 39-493-495c-272-272-503-499-513-505-16-9-26-2-70 48-83 98-306 321-394 396l-83 71 248 247c136 136 355 355 486 487l238 239-66 98c-375 561-389 1310-35 1876 81 129 167 235 282 345 137 132 263 220 433 305 327 161 648 215 1020 169zM6700 17971c198-50 370-126 512-228 106-75 248-216 326-321 102-140 197-345 232-504 12-53 16-58 44-62 17-3 576-37 1241-76 2156-127 2719-161 2723-164 2-2-8-62-22-132-32-167-55-341-63-481-3-61-9-116-12-121-4-5-298 9-726 34-396 24-1258 75-1915 113-657 39-1223 73-1257 76-45 4-63 2-63-6 0-6-20-55-45-107-142-300-391-548-686-686-506-235-1113-147-1531 221-228 201-384 470-449 773-33 154-34 422-1 569 65 291 189 518 392 721 103 103 242 206 355 262 124 63 257 103 465 142 14 2 108 3 210 1 148-2 202-7 270-24zm18467-2146c690-89 1290-509 1602-1125 377-741 282-1622-244-2274-336-417-825-685-1380-757-133-17-410-14-535 5-324 51-621 166-885 344-539 363-876 952-914 1601-5 84-7 160-4 170 3 13-2 21-14 25-15 4-1641 352-2893 618-184 39-339 74-343 78s6 56 24 116c36 126 91 387 109 522 13 92 13 93 39 88 14-3 175-37 356-76 1592-340 2864-610 2873-610 7 0 12 5 12 12 0 24 121 251 188 350 217 323 495 562 855 733 190 90 433 161 636 185 117 13 394 11 518-5zm-13358-1127c34-133 111-365 166-502 27-66 44-121 39-125-5-5-234-127-509-272-875-461-900-475-896-490 1-8 14-56 27-108 132-514 21-1089-293-1530-261-366-642-623-1090-736-180-45-490-59-693-30-796 113-1429 723-1576 1520-25 137-30 442-10 585 71 488 318 916 701 1216 525 409 1226 507 1846 259 224-90 413-213 600-393l119-114 482 255c266 141 611 323 768 406s287 151 290 151 16-42 29-92zm9421-3872c141 97 409 213 614 265 240 61 560 76 821 39 823-119 1507-734 1715-1544 52-199 64-310 64-546-1-242-15-350-78-565-164-570-583-1057-1129-1315-759-358-1688-213-2300 358-352 329-567 722-653 1197-25 137-30 460-10 612 40 305 163 639 318 867l40 59-1178 1178-1179 1179 55 47c90 76 315 301 398 396l76 88 1181-1180 1180-1179 65 44zm-6583 999c150-41 338-80 477-100 54-8 100-16 102-18 4-4-278-1344-292-1389-3-12 11-25 51-48 299-171 588-517 716-855 93-246 125-444 116-705-7-172-19-251-64-410-111-396-367-746-712-975-152-100-252-149-418-205-184-61-322-82-548-83-208-1-306 12-483 62-473 136-859 456-1077 896-77 156-115 262-151 427-26 115-28 139-28 358 0 208 2 247 22 340 52 237 159 487 289 670 101 142 302 339 443 432 197 131 415 224 630 268 122 25 336 42 421 34 51-5 67-3 71 7 2 8 67 310 144 671 91 430 143 658 151 658 7 0 70-16 140-35z" transform="matrix(.1 0 0 -.1 0 3144)"/><path style="fill:#80effe" d="M14259 24195c-665-126-1067-755-895-1400 61-228 211-448 405-596 90-69 267-153 381-183 472-124 950 54 1215 454 226 340 254 753 76 1115-144 293-410 509-728 591-124 33-337 41-454 19zm-4498-500c-83-19-190-70-266-128-101-77-168-169-219-302-28-75-30-88-30-220 0-127 2-147 27-214 73-200 218-345 416-415 78-28 97-30 211-31 138 0 210 17 323 77 134 71 264 230 313 382 34 102 38 263 10 366-58 212-222 389-431 463-100 36-253 45-354 22zm10739-1855c-219-36-418-136-571-289-125-125-216-283-260-448-27-100-37-313-19-421 17-105 70-250 126-342 217-360 619-546 1025-475 397 69 703 357 802 755 25 101 29 318 9 415-86 400-374 698-762 790-80 18-276 27-350 15zM6280 17243c-71-12-189-60-255-104-125-84-209-194-262-344-25-73-28-92-27-210 0-108 4-141 23-195 38-110 89-190 175-275 130-129 276-189 457-188 116 1 198 21 304 72 316 155 452 548 301 868-88 185-255 323-446 367-60 14-209 19-270 9zm18390-2170c-201-34-455-148-605-270-79-64-212-207-266-286-426-620-265-1472 356-1885 196-130 415-203 661-222 647-49 1228 379 1390 1024 31 123 43 362 25 499-79 592-553 1067-1144 1146-109 15-315 12-417-6zM8640 13859c-36-6-105-24-155-40-471-158-776-576-775-1062 0-172 15-253 75-412 128-335 433-598 791-681 230-53 503-23 719 80 131 62 229 132 329 236 125 130 202 255 258 420 208 614-155 1274-792 1441-89 24-347 34-450 18zm13640-3456c-253-15-477-93-701-243-79-53-259-232-320-320-230-325-304-737-204-1125 94-363 355-683 695-855 199-100 381-143 610-143 294 0 563 91 801 270 426 321 622 863 498 1384-116 489-511 886-994 997-120 28-275 42-385 35zm-8344-634c-396-58-721-348-828-739-19-73-23-109-23-250s4-177 23-250c47-170 128-314 249-441 216-225 522-336 832-300 127 15 209 40 326 98 332 165 536 479 552 848 19 445-246 839-662 985-150 52-322 70-469 49z" transform="matrix(.1 0 0 -.1 0 3144)"/><path style="fill:#377dff" d="M87900 20363c-68-5-209-32-265-50-188-60-389-211-497-374-159-240-207-564-128-864 106-400 446-668 893-704 380-30 718 96 932 346 80 93 163 256 196 383 28 107 37 326 19 438-86 537-552 872-1150 825zm-20000-4863v-4780h1700v1793c0 1078 4 1862 10 1967 38 657 210 1099 537 1386 288 251 590 356 1033 357 242 1 359-18 535-88 289-116 476-355 556-710 44-199 42-85 46-2462l3-2243h1700v2328c0 1430-4 2373-10 2447-95 1160-570 1837-1462 2080-439 119-1063 123-1488 8-425-114-792-341-1088-673-63-71-200-244-227-287-1-1-32 3-71 10l-69 13-3 1817-2 1817h-1700v-4780zm-32255 4380c-661-46-1189-187-1646-440-620-345-1029-875-1173-1520-92-417-87-882 14-1298 145-595 481-1054 1030-1402 205-130 549-285 842-378 199-64 313-92 973-242 844-192 962-223 1202-326 301-129 507-305 603-518 125-276 121-694-10-982-91-202-286-389-516-495-105-49-291-101-440-124-168-26-580-32-764-11-413 48-759 153-1072 326-386 212-723 507-985 861l-88 119-75-1h-75l-96-117c-52-64-268-328-480-587-212-258-389-476-393-483-5-8 22-58 77-140 291-436 747-815 1283-1068 517-244 1061-385 1719-446 219-20 931-17 1115 5 673 81 1110 218 1543 485 625 384 1004 987 1129 1797 26 168 36 620 19 799-57 568-232 1009-557 1394-366 436-1004 764-1853 953-75 17-395 84-711 150-664 138-732 154-935 220-467 153-708 368-797 709-18 71-22 113-22 255-1 192 13 264 79 397 63 126 159 234 295 330 251 177 639 268 1140 268 768 0 1420-242 1897-703l111-108 73 3 72 3 438 600c241 330 438 604 439 609 0 13-137 151-245 245-574 500-1248 759-2205 847-197 18-772 26-955 14zm43435-4640v-4520h1780v3370h868c477 0 964 5 1081 10 527 26 983 132 1366 320 707 346 1161 908 1354 1677 117 461 128 1031 31 1519-89 444-269 834-541 1169-81 100-278 288-391 373-375 282-817 462-1338 547-307 49-248 48-2282 52l-1928 4v-4521zm3550 3095c167-21 255-40 377-80 437-145 700-448 792-914 62-313 48-705-35-981-130-429-452-711-926-810-204-42-227-43-1115-47l-863-4v2851h823c681 0 844-3 947-15zm-39035-671c-563-43-963-147-1403-362-459-225-842-576-1142-1047-264-415-436-930-505-1515-55-464-40-1037 39-1503 156-916 611-1662 1281-2099 427-279 898-442 1485-514 278-34 711-43 985-20 656 54 1140 221 1557 537 111 85 159 127 292 257 138 137 251 273 352 427 72 110 204 343 204 361 0 5-254 172-565 372l-565 362h-126l-27-56c-70-143-228-347-353-457-291-256-649-370-1159-370-991 0-1547 502-1679 1519-9 65-18 134-20 152l-5 32h4390l64 37c36 21 67 44 69 53 30 102 43 1020 18 1260-27 268-59 455-113 658-232 874-780 1464-1619 1742-226 75-470 125-758 155-133 14-596 27-697 19zm523-1340c192-28 378-97 523-194 173-116 325-320 406-543 67-186 123-494 123-684v-53h-1445c-795 0-1445 2-1445 4s11 60 25 128c148 747 506 1176 1100 1322 58 14 212 33 325 40 90 5 278-4 388-20zm6477 1335c-895-54-1753-410-2377-985-53-49-124-120-158-157l-62-68 358-539 359-540h108l126 123c149 144 237 217 386 319 379 260 772 417 1158 464 160 19 473 21 612 4 391-48 613-209 680-494 18-77 19-251 1-335-72-334-412-511-1281-666-110-20-263-47-340-61-920-163-1555-447-1915-855-217-246-337-528-391-919-17-119-17-479 0-615 41-334 140-635 291-880 232-377 625-653 1110-779 253-66 386-81 715-80 248 0 310 3 430 22 494 77 861 263 1137 576 91 102 202 265 259 377 43 87 46 88 143 71 38-7 38-7 76-109 137-375 363-624 674-744 219-85 414-114 756-114 293 1 471 26 690 96 92 30 230 99 230 114 0 8-27 273-60 591-33 317-60 580-60 584s-18 12-40 19c-34 10-49 9-104-8-93-29-238-43-315-30-88 14-134 31-184 70-55 42-87 87-118 164l-24 60-6 1675c-6 1730-6 1749-49 1985-58 326-172 610-338 845-85 120-270 307-387 391-183 131-499 268-760 329-383 91-868 126-1330 99zm1180-3572 60-13 3-299c5-481-14-740-69-950-102-389-345-693-676-846-181-84-414-126-638-115-311 16-530 100-695 265-144 145-213 320-227 576-10 189 19 343 93 494 39 79 62 110 133 181 178 179 397 268 871 355 561 103 856 198 1035 334 22 17 42 30 45 30s32-5 65-12zm11830 3576c-777-46-1405-272-1935-693-432-344-789-878-978-1460-237-730-265-1727-72-2509 151-608 424-1107 829-1511 221-220 450-386 724-524 508-257 1042-376 1687-376 740 0 1357 169 1805 494 166 120 406 349 536 510 168 210 340 519 433 776 65 182 64 172 19 197-21 11-294 161-606 333l-569 312-60-7c-33-4-61-12-63-19-62-186-152-379-241-512-76-115-281-321-389-393-96-63-233-130-335-165-187-62-453-92-676-76-636 45-1085 382-1307 980-211 568-221 1550-22 2156 82 250 190 440 341 603 293 314 676 456 1188 438 642-22 1029-267 1319-834l58-113h123l575 412c317 226 580 414 584 418 12 10-60 178-130 305-161 293-361 526-616 716-430 321-987 496-1714 539-158 9-386 11-508 3zm30040 1c-584-26-1043-137-1484-359-503-252-871-589-1164-1066-432-702-608-1677-491-2724 116-1043 581-1877 1324-2374 472-316 1022-493 1684-542 189-14 613-6 791 15 788 94 1427 381 1911 861 463 459 768 1077 889 1798 44 268 56 409 62 744 7 419-11 678-73 1018-129 710-437 1315-895 1760-155 150-230 211-405 328-426 283-950 463-1520 521-155 16-485 26-629 20zm500-1467c230-43 397-106 557-210 311-202 517-522 621-962 131-550 126-1305-12-1831-128-488-379-824-751-1006-232-114-556-168-880-147-628 40-1051 342-1273 909-134 340-199 804-183 1294 18 527 91 887 246 1201 220 449 596 706 1115 765 116 13 464 5 560-13zm8285 1467c-19-2-84-9-145-15-484-48-908-225-1240-517-147-129-328-348-420-507-15-27-39-66-51-87l-23-36-68 17-68 17-3 502-2 502h-1630v-6820h1699l4 1933c3 1739 5 1945 20 2057 52 388 138 660 279 887 68 110 231 281 345 362 234 167 503 253 838 268 277 12 533-33 725-128 94-46 116-63 205-153 88-89 106-114 152-206 80-161 120-321 143-565 6-71 10-873 10-2282v-2173h1701l-4 2408c-3 2597 0 2436-53 2752-48 288-143 580-262 800-311 579-812 885-1587 970-97 11-507 21-565 14zm7105-1c-718-27-1414-263-1910-649-462-359-827-892-1018-1489-86-267-136-517-179-890-17-151-17-858 0-1025 66-634 223-1145 485-1585 158-265 405-550 638-737 500-400 1171-639 1941-689 217-14 677-6 858 15 763 90 1262 317 1736 790 216 216 382 444 515 708l39 77-28 19c-23 16-900 580-1058 680-43 27-60 32-112 32h-62l-26-52c-14-28-50-88-78-132-243-375-570-590-1011-666-492-84-1031-12-1360 182-416 246-648 646-740 1281-14 94-25 180-25 190 0 16 111 17 2191 17h2191l68 37c64 35 69 40 74 78 29 203 39 943 17 1200-87 1005-444 1690-1116 2139-127 86-405 222-560 276-430 149-922 213-1470 193zm504-1344c462-78 767-334 914-769 59-175 91-354 111-632l5-68h-1444c-1248 0-1445 2-1445 14 0 36 55 282 87 386 93 308 218 528 408 715 236 234 521 349 940 379 95 7 311-6 424-25zm6826 1340c-726-54-1342-275-1834-658-109-84-303-272-396-381-564-667-826-1522-802-2615 9-386 39-656 108-965 138-619 393-1114 784-1519 152-157 274-259 450-376 447-298 952-466 1615-537 194-20 785-17 975 5 434 52 741 135 1040 281 401 196 778 527 1034 906 104 154 232 383 220 394-2 2-258 166-568 365l-565 361h-123l-33-62c-111-211-293-422-471-548-289-204-719-301-1194-270-898 59-1396 557-1519 1520-9 69-19 137-21 153l-4 27h4387l66 38c36 20 68 44 70 52 30 100 43 1018 18 1265-60 603-212 1077-465 1455-336 502-847 845-1492 1004-384 95-877 135-1280 105zm425-1319c483-37 814-233 997-588 117-225 172-455 198-819l5-83h-1445c-795 0-1445 2-1445 4 0 25 60 288 86 381 196 679 638 1057 1294 1104 152 12 172 12 310 1zm-58590 1249c-201-19-426-82-588-163-317-159-548-405-743-788l-71-140-31 6c-18 4-49 9-69 13l-38 6v1017h-1650v-6820h1699l4 1803c3 1606 5 1817 20 1937 56 453 150 757 311 1005 62 96 203 246 294 314 258 193 605 280 1007 251 172-12 249-27 420-81 126-40 133-41 187-30 38 8 59 18 62 29 21 69 286 1456 279 1463-16 16-149 77-213 97-241 79-580 110-880 81zm66080-4c-191-23-406-85-550-157-149-75-257-155-390-288-146-145-261-308-361-510-34-69-63-126-64-128-2-2-32 2-69 9l-66 11v1018h-1660v-6820h1709l4 1808c3 1619 5 1820 20 1937 76 588 208 925 469 1195 263 274 661 403 1133 370 173-12 290-34 445-86 105-35 114-36 167-25 31 6 59 13 61 16 5 4 291 1447 292 1466 0 13-157 88-237 113-249 78-614 106-903 71zm-37620-3455v-3410h1710v6820h-1710v-3410z" transform="matrix(.1 0 0 -.1 0 3144)"/></svg>